Coordinates
version=1
nRows=6
nColumns=36
inDegrees=yes

Units are S.I. units (second, meters, Newtons, ...)
If the header above contains a line with 'inDegrees', this indicates whether rotational values are in degrees (yes) or radians (no).

endheader
time	pelvis_tilt	pelvis_list	pelvis_rotation	pelvis_tx	pelvis_ty	pelvis_tz	hip_flexion_r	hip_adduction_r	hip_rotation_r	knee_angle_r	knee_angle_r_beta	ankle_angle_r	subtalar_angle_r	mtp_angle_r	hip_flexion_l	hip_adduction_l	hip_rotation_l	knee_angle_l	knee_angle_l_beta	ankle_angle_l	subtalar_angle_l	mtp_angle_l	lumbar_extension	lumbar_bending	lumbar_rotation	arm_flex_r	arm_add_r	arm_rot_r	elbow_flex_r	pro_sup_r	arm_flex_l	arm_add_l	arm_rot_l	elbow_flex_l	pro_sup_l
      8.46666670	     -5.30060893	     -0.93496491	     10.09099785	      0.31551353	      0.94549404	      0.09552959	      9.55120013	     -0.31224528	     -2.82101577	      3.86354232	      0.06743153	      8.94835676	    -27.46617106	     -7.49999987	     16.20161461	     -1.67257630	     10.05010606	      9.84780674	      0.17187665	     15.78752431	     -9.54427763	     -7.49999987	      9.73711427	     -1.36925697	     10.45778841	    -22.17116872	    -19.44535488	     -7.16911642	    131.07425279	     86.26258194	    -52.82489596	    -11.59497451	    -24.00114237	    107.07784017	     67.49652395
      8.48333330	     -5.46202588	     -0.99702388	     10.06087837	      0.31672995	      0.94701736	      0.09624784	      9.66666320	     -0.24074741	     -3.00572678	      3.90684985	      0.06818739	      8.90034854	    -26.93024031	     -7.49999987	     16.42978015	     -1.77923436	     10.01543197	     10.09813539	      0.17624571	     15.50488601	     -9.57255207	     -7.49999987	      9.70256645	     -1.26285853	     10.66597488	    -21.60832259	    -19.65658866	     -6.61077003	    131.10561995	     84.50253078	    -54.89892686	    -10.73500146	    -25.77249903	     97.25767441	     66.18341753
      8.50000000	     -5.49589802	     -0.97597595	      9.90386022	      0.32037185	      0.94776039	      0.09736238	      9.66812668	     -0.19613734	     -3.01951721	      3.88865764	      0.06786988	      8.61513452	    -26.53708369	     -7.49999987	     16.35773519	     -1.89611127	      9.96891161	     10.22050773	      0.17838151	     14.91478919	     -9.92293473	     -7.49999987	      9.26317957	     -1.15530294	     10.34883307	    -20.58209379	    -20.32918241	     -4.61249652	    131.52732617	     83.01677487	    -55.83513144	    -10.11196358	    -26.51093361	     85.86782971	     64.80352747
      8.51666670	     -5.58452773	     -0.91648140	      9.75757789	      0.32290074	      0.94524776	      0.09846275	      9.74145746	     -0.16244982	     -2.58888290	      4.20659688	      0.07341897	      8.69025617	    -26.32532091	     -7.49999987	     16.35061147	     -1.94479588	     10.03685111	     10.41617720	      0.18179659	     14.27400422	    -10.66453786	     -7.49999987	      8.60804440	     -1.22534511	      9.63119148	    -18.37062310	    -21.41337461	     -2.40777180	    131.45653867	     87.97045329	    -55.61182056	     -9.86407517	    -26.24640223	     73.06316840	     61.10665626
      8.53333330	     -5.77785505	     -0.87936283	      9.50553057	      0.32718926	      0.93804290	      0.09932946	      9.90492516	     -0.11172404	     -2.29623464	      4.59134310	      0.08013405	      9.22530282	    -25.81107184	     -7.49999987	     16.40466625	     -2.05808599	      9.84135831	     10.54554607	      0.18405450	     14.29242262	    -10.58140156	     -7.49999987	      8.07363862	     -1.29917086	      9.28180808	    -16.00421319	    -22.67670821	     -0.80467665	    131.30783029	     87.98572156	    -54.11952685	    -10.41207594	    -24.16386563	     61.48941168	     60.77944036
      8.55000000	     -5.94422084	     -0.88516525	      9.29784092	      0.32918540	      0.94043943	      0.09957674	     10.01132584	     -0.06199080	     -2.21369204	      4.89038160	      0.08535326	      9.22198591	    -25.54792195	     -7.49999987	     16.44273963	     -2.16429263	      9.71431615	     10.58067349	      0.18466759	     14.00912490	    -10.70226810	     -7.49999987	      7.77560975	     -1.23254460	      8.88959148	    -13.59401637	    -23.94830403	      1.25919867	    130.58589658	     87.33557293	    -51.59205227	    -11.22457141	    -20.19433153	     51.62447587	     60.25413145
